<mxfile host="app.diagrams.net" modified="2021-03-23T07:08:39.968Z" agent="5.0 (Windows NT 10.0; WOW64) AppleWebKit/537.36 (KHTML, like Gecko) Chrome/86.0.4240.198 Safari/537.36" etag="SwaRldCPrgtgxaV8IKg8" version="14.5.0" type="github">
  <diagram name="Page-1" id="ad52d381-51e7-2e0d-a935-2d0ddd2fd229">
    <mxGraphModel dx="2522" dy="1582" grid="1" gridSize="10" guides="1" tooltips="1" connect="1" arrows="1" fold="1" page="1" pageScale="1" pageWidth="1100" pageHeight="850" background="#ffffff" math="0" shadow="0">
      <root>
        <mxCell id="0" />
        <mxCell id="1" parent="0" />
        <mxCell id="2c924340bb9dbf6c-4" value="妖梦" style="ellipse;whiteSpace=wrap;html=1;rounded=1;shadow=1;comic=0;labelBackgroundColor=none;strokeWidth=2;fontFamily=Verdana;fontSize=12;align=center;" parent="1" vertex="1">
          <mxGeometry x="480" y="420" width="120" height="120" as="geometry" />
        </mxCell>
        <mxCell id="2c924340bb9dbf6c-31" value="体术" style="edgeStyle=none;rounded=1;html=1;labelBackgroundColor=none;startArrow=none;startFill=0;startSize=5;endArrow=classicThin;endFill=1;endSize=5;jettySize=auto;orthogonalLoop=1;strokeColor=#B3B3B3;strokeWidth=1;fontFamily=Verdana;fontSize=12" parent="1" source="2c924340bb9dbf6c-4" edge="1">
          <mxGeometry relative="1" as="geometry">
            <mxPoint x="400" y="400" as="targetPoint" />
          </mxGeometry>
        </mxCell>
        <mxCell id="2c924340bb9dbf6c-32" value="弹幕" style="edgeStyle=none;rounded=1;html=1;labelBackgroundColor=none;startArrow=none;startFill=0;startSize=5;endArrow=classicThin;endFill=1;endSize=5;jettySize=auto;orthogonalLoop=1;strokeColor=#B3B3B3;strokeWidth=1;fontFamily=Verdana;fontSize=12" parent="1" source="2c924340bb9dbf6c-4" edge="1">
          <mxGeometry relative="1" as="geometry">
            <mxPoint x="690" y="410" as="targetPoint" />
          </mxGeometry>
        </mxCell>
        <mxCell id="2c924340bb9dbf6c-33" value="法术" style="edgeStyle=none;rounded=1;html=1;labelBackgroundColor=none;startArrow=none;startFill=0;startSize=5;endArrow=classicThin;endFill=1;endSize=5;jettySize=auto;orthogonalLoop=1;strokeColor=#B3B3B3;strokeWidth=1;fontFamily=Verdana;fontSize=12;exitX=0.917;exitY=0.833;exitDx=0;exitDy=0;exitPerimeter=0;" parent="1" source="2c924340bb9dbf6c-4" edge="1">
          <mxGeometry relative="1" as="geometry">
            <mxPoint x="640" y="580" as="targetPoint" />
          </mxGeometry>
        </mxCell>
        <mxCell id="HF6BJj-_HyRR_GPY9bdS-1" value="牌，基础属性" style="rounded=1;whiteSpace=wrap;html=1;" vertex="1" parent="1">
          <mxGeometry x="340" y="350" width="50" height="60" as="geometry" />
        </mxCell>
        <mxCell id="HF6BJj-_HyRR_GPY9bdS-3" value="技能" style="edgeStyle=none;rounded=1;html=1;labelBackgroundColor=none;startArrow=none;startFill=0;startSize=5;endArrow=classicThin;endFill=1;endSize=5;jettySize=auto;orthogonalLoop=1;strokeColor=#B3B3B3;strokeWidth=1;fontFamily=Verdana;fontSize=12;exitX=0;exitY=1;exitDx=0;exitDy=0;" edge="1" parent="1" source="2c924340bb9dbf6c-4">
          <mxGeometry relative="1" as="geometry">
            <mxPoint x="480" y="540" as="sourcePoint" />
            <mxPoint x="450" y="580" as="targetPoint" />
            <Array as="points">
              <mxPoint x="450" y="580" />
            </Array>
          </mxGeometry>
        </mxCell>
        <mxCell id="HF6BJj-_HyRR_GPY9bdS-4" value="防御" style="edgeStyle=none;rounded=1;html=1;labelBackgroundColor=none;startArrow=none;startFill=0;startSize=5;endArrow=classicThin;endFill=1;endSize=5;jettySize=auto;orthogonalLoop=1;strokeColor=#B3B3B3;strokeWidth=1;fontFamily=Verdana;fontSize=12;exitX=0.5;exitY=0;exitDx=0;exitDy=0;" edge="1" parent="1" source="2c924340bb9dbf6c-4">
          <mxGeometry relative="1" as="geometry">
            <mxPoint x="549.905411472542" y="400.2316636985954" as="sourcePoint" />
            <mxPoint x="540" y="320" as="targetPoint" />
          </mxGeometry>
        </mxCell>
        <mxCell id="HF6BJj-_HyRR_GPY9bdS-8" value="" style="edgeStyle=none;rounded=1;html=1;labelBackgroundColor=none;startArrow=none;startFill=0;startSize=5;endArrow=classicThin;endFill=1;endSize=5;jettySize=auto;orthogonalLoop=1;strokeColor=#B3B3B3;strokeWidth=1;fontFamily=Verdana;fontSize=12;entryX=1;entryY=0.75;entryDx=0;entryDy=0;" edge="1" parent="1" target="HF6BJj-_HyRR_GPY9bdS-15">
          <mxGeometry relative="1" as="geometry">
            <mxPoint x="340" y="360" as="sourcePoint" />
            <mxPoint x="290" y="270" as="targetPoint" />
          </mxGeometry>
        </mxCell>
        <mxCell id="HF6BJj-_HyRR_GPY9bdS-10" value="牌，基础属性" style="rounded=1;whiteSpace=wrap;html=1;" vertex="1" parent="1">
          <mxGeometry x="515" y="260" width="50" height="60" as="geometry" />
        </mxCell>
        <mxCell id="HF6BJj-_HyRR_GPY9bdS-11" value="牌，基础属性" style="rounded=1;whiteSpace=wrap;html=1;" vertex="1" parent="1">
          <mxGeometry x="690" y="360" width="50" height="60" as="geometry" />
        </mxCell>
        <mxCell id="HF6BJj-_HyRR_GPY9bdS-12" value="牌，基础属性" style="rounded=1;whiteSpace=wrap;html=1;" vertex="1" parent="1">
          <mxGeometry x="390" y="570" width="50" height="60" as="geometry" />
        </mxCell>
        <mxCell id="HF6BJj-_HyRR_GPY9bdS-13" value="牌，基础属性" style="rounded=1;whiteSpace=wrap;html=1;" vertex="1" parent="1">
          <mxGeometry x="650" y="580" width="50" height="60" as="geometry" />
        </mxCell>
        <mxCell id="HF6BJj-_HyRR_GPY9bdS-14" value="" style="edgeStyle=none;rounded=1;html=1;labelBackgroundColor=none;startArrow=none;startFill=0;startSize=5;endArrow=classicThin;endFill=1;endSize=5;jettySize=auto;orthogonalLoop=1;strokeColor=#B3B3B3;strokeWidth=1;fontFamily=Verdana;fontSize=12;entryX=1;entryY=0.5;entryDx=0;entryDy=0;" edge="1" parent="1" target="HF6BJj-_HyRR_GPY9bdS-16">
          <mxGeometry relative="1" as="geometry">
            <mxPoint x="339.99541147254195" y="400.0016636985954" as="sourcePoint" />
            <mxPoint x="250" y="440" as="targetPoint" />
          </mxGeometry>
        </mxCell>
        <mxCell id="HF6BJj-_HyRR_GPY9bdS-15" value="牌，基础属性" style="rounded=1;whiteSpace=wrap;html=1;" vertex="1" parent="1">
          <mxGeometry x="190" y="270" width="50" height="60" as="geometry" />
        </mxCell>
        <mxCell id="HF6BJj-_HyRR_GPY9bdS-16" value="牌，基础属性" style="rounded=1;whiteSpace=wrap;html=1;" vertex="1" parent="1">
          <mxGeometry x="190" y="400" width="50" height="60" as="geometry" />
        </mxCell>
        <mxCell id="HF6BJj-_HyRR_GPY9bdS-17" value="" style="edgeStyle=none;rounded=1;html=1;labelBackgroundColor=none;startArrow=none;startFill=0;startSize=5;endArrow=classicThin;endFill=1;endSize=5;jettySize=auto;orthogonalLoop=1;strokeColor=#B3B3B3;strokeWidth=1;fontFamily=Verdana;fontSize=12;entryX=0;entryY=1;entryDx=0;entryDy=0;exitX=0.5;exitY=0;exitDx=0;exitDy=0;" edge="1" parent="1" source="HF6BJj-_HyRR_GPY9bdS-15" target="HF6BJj-_HyRR_GPY9bdS-23">
          <mxGeometry relative="1" as="geometry">
            <mxPoint x="220" y="260" as="sourcePoint" />
            <mxPoint x="330" y="150" as="targetPoint" />
          </mxGeometry>
        </mxCell>
        <mxCell id="HF6BJj-_HyRR_GPY9bdS-18" value="" style="edgeStyle=none;rounded=1;html=1;labelBackgroundColor=none;startArrow=none;startFill=0;startSize=5;endArrow=classicThin;endFill=1;endSize=5;jettySize=auto;orthogonalLoop=1;strokeColor=#B3B3B3;strokeWidth=1;fontFamily=Verdana;fontSize=12" edge="1" parent="1">
          <mxGeometry relative="1" as="geometry">
            <mxPoint x="519.995411472542" y="260.0016636985954" as="sourcePoint" />
            <mxPoint x="470" y="180" as="targetPoint" />
          </mxGeometry>
        </mxCell>
        <mxCell id="HF6BJj-_HyRR_GPY9bdS-19" value="牌，基础属性" style="rounded=1;whiteSpace=wrap;html=1;" vertex="1" parent="1">
          <mxGeometry x="440" y="120" width="50" height="60" as="geometry" />
        </mxCell>
        <mxCell id="HF6BJj-_HyRR_GPY9bdS-20" value="牌，基础属性" style="rounded=1;whiteSpace=wrap;html=1;" vertex="1" parent="1">
          <mxGeometry x="580" y="120" width="50" height="60" as="geometry" />
        </mxCell>
        <mxCell id="HF6BJj-_HyRR_GPY9bdS-21" value="" style="edgeStyle=none;rounded=1;html=1;labelBackgroundColor=none;startArrow=none;startFill=0;startSize=5;endArrow=classicThin;endFill=1;endSize=5;jettySize=auto;orthogonalLoop=1;strokeColor=#B3B3B3;strokeWidth=1;fontFamily=Verdana;fontSize=12" edge="1" parent="1" target="HF6BJj-_HyRR_GPY9bdS-20">
          <mxGeometry relative="1" as="geometry">
            <mxPoint x="559.995411472542" y="260.0016636985954" as="sourcePoint" />
            <mxPoint x="510" y="180" as="targetPoint" />
          </mxGeometry>
        </mxCell>
        <mxCell id="HF6BJj-_HyRR_GPY9bdS-47" style="edgeStyle=orthogonalEdgeStyle;rounded=0;orthogonalLoop=1;jettySize=auto;html=1;exitX=0.5;exitY=0;exitDx=0;exitDy=0;" edge="1" parent="1" source="HF6BJj-_HyRR_GPY9bdS-23">
          <mxGeometry relative="1" as="geometry">
            <mxPoint x="275" y="-80" as="targetPoint" />
          </mxGeometry>
        </mxCell>
        <mxCell id="HF6BJj-_HyRR_GPY9bdS-23" value="牌，不同的属性" style="rounded=1;whiteSpace=wrap;html=1;fillColor=#dae8fc;strokeColor=#6c8ebf;" vertex="1" parent="1">
          <mxGeometry x="250" y="80" width="50" height="60" as="geometry" />
        </mxCell>
        <mxCell id="HF6BJj-_HyRR_GPY9bdS-26" value="" style="edgeStyle=none;rounded=1;html=1;labelBackgroundColor=none;startArrow=none;startFill=0;startSize=5;endArrow=classicThin;endFill=1;endSize=5;jettySize=auto;orthogonalLoop=1;strokeColor=#B3B3B3;strokeWidth=1;fontFamily=Verdana;fontSize=12;exitX=-0.08;exitY=0.617;exitDx=0;exitDy=0;exitPerimeter=0;entryX=1;entryY=0.75;entryDx=0;entryDy=0;" edge="1" parent="1" source="HF6BJj-_HyRR_GPY9bdS-19" target="HF6BJj-_HyRR_GPY9bdS-23">
          <mxGeometry relative="1" as="geometry">
            <mxPoint x="300" y="170" as="sourcePoint" />
            <mxPoint x="310" y="120" as="targetPoint" />
          </mxGeometry>
        </mxCell>
        <mxCell id="HF6BJj-_HyRR_GPY9bdS-48" style="edgeStyle=orthogonalEdgeStyle;rounded=0;orthogonalLoop=1;jettySize=auto;html=1;exitX=0.5;exitY=0;exitDx=0;exitDy=0;" edge="1" parent="1" source="HF6BJj-_HyRR_GPY9bdS-27">
          <mxGeometry relative="1" as="geometry">
            <mxPoint x="250" y="-80" as="targetPoint" />
            <Array as="points">
              <mxPoint x="80" y="160" />
              <mxPoint x="80" y="-40" />
              <mxPoint x="250" y="-40" />
            </Array>
          </mxGeometry>
        </mxCell>
        <mxCell id="HF6BJj-_HyRR_GPY9bdS-53" style="edgeStyle=orthogonalEdgeStyle;rounded=0;orthogonalLoop=1;jettySize=auto;html=1;exitX=0;exitY=0.5;exitDx=0;exitDy=0;entryX=0.5;entryY=0;entryDx=0;entryDy=0;" edge="1" parent="1" source="HF6BJj-_HyRR_GPY9bdS-27" target="HF6BJj-_HyRR_GPY9bdS-52">
          <mxGeometry relative="1" as="geometry">
            <Array as="points">
              <mxPoint x="70" y="210" />
              <mxPoint x="-290" y="210" />
              <mxPoint x="-290" y="320" />
            </Array>
          </mxGeometry>
        </mxCell>
        <mxCell id="HF6BJj-_HyRR_GPY9bdS-27" value="牌，不同的属性" style="rounded=1;whiteSpace=wrap;html=1;fillColor=#dae8fc;strokeColor=#6c8ebf;" vertex="1" parent="1">
          <mxGeometry x="70" y="160" width="50" height="60" as="geometry" />
        </mxCell>
        <mxCell id="HF6BJj-_HyRR_GPY9bdS-28" value="牌，不同的属性" style="rounded=1;whiteSpace=wrap;html=1;fillColor=#dae8fc;strokeColor=#6c8ebf;" vertex="1" parent="1">
          <mxGeometry x="60" y="330" width="50" height="60" as="geometry" />
        </mxCell>
        <mxCell id="HF6BJj-_HyRR_GPY9bdS-29" value="" style="edgeStyle=none;rounded=1;html=1;labelBackgroundColor=none;startArrow=none;startFill=0;startSize=5;endArrow=classicThin;endFill=1;endSize=5;jettySize=auto;orthogonalLoop=1;strokeColor=#B3B3B3;strokeWidth=1;fontFamily=Verdana;fontSize=12;entryX=1;entryY=0.75;entryDx=0;entryDy=0;" edge="1" parent="1">
          <mxGeometry relative="1" as="geometry">
            <mxPoint x="210" y="270" as="sourcePoint" />
            <mxPoint x="110" y="225" as="targetPoint" />
          </mxGeometry>
        </mxCell>
        <mxCell id="HF6BJj-_HyRR_GPY9bdS-30" value="" style="edgeStyle=none;rounded=1;html=1;labelBackgroundColor=none;startArrow=none;startFill=0;startSize=5;endArrow=classicThin;endFill=1;endSize=5;jettySize=auto;orthogonalLoop=1;strokeColor=#B3B3B3;strokeWidth=1;fontFamily=Verdana;fontSize=12;entryX=1;entryY=0;entryDx=0;entryDy=0;exitX=0;exitY=0.5;exitDx=0;exitDy=0;" edge="1" parent="1" source="HF6BJj-_HyRR_GPY9bdS-15" target="HF6BJj-_HyRR_GPY9bdS-28">
          <mxGeometry relative="1" as="geometry">
            <mxPoint x="180" y="345" as="sourcePoint" />
            <mxPoint x="80" y="300" as="targetPoint" />
          </mxGeometry>
        </mxCell>
        <mxCell id="HF6BJj-_HyRR_GPY9bdS-49" style="edgeStyle=orthogonalEdgeStyle;rounded=0;orthogonalLoop=1;jettySize=auto;html=1;exitX=0.5;exitY=0;exitDx=0;exitDy=0;" edge="1" parent="1" source="HF6BJj-_HyRR_GPY9bdS-33">
          <mxGeometry relative="1" as="geometry">
            <mxPoint x="300" y="-80" as="targetPoint" />
          </mxGeometry>
        </mxCell>
        <mxCell id="HF6BJj-_HyRR_GPY9bdS-33" value="牌，不同的属性" style="rounded=1;whiteSpace=wrap;html=1;fillColor=#dae8fc;strokeColor=#6c8ebf;" vertex="1" parent="1">
          <mxGeometry x="370" y="-20" width="50" height="60" as="geometry" />
        </mxCell>
        <mxCell id="HF6BJj-_HyRR_GPY9bdS-34" value="牌，不同的属性" style="rounded=1;whiteSpace=wrap;html=1;fillColor=#dae8fc;strokeColor=#6c8ebf;" vertex="1" parent="1">
          <mxGeometry x="500" y="-10" width="50" height="60" as="geometry" />
        </mxCell>
        <mxCell id="HF6BJj-_HyRR_GPY9bdS-37" value="" style="edgeStyle=none;rounded=1;html=1;labelBackgroundColor=none;startArrow=none;startFill=0;startSize=5;endArrow=classicThin;endFill=1;endSize=5;jettySize=auto;orthogonalLoop=1;strokeColor=#B3B3B3;strokeWidth=1;fontFamily=Verdana;fontSize=12;exitX=0.75;exitY=0;exitDx=0;exitDy=0;" edge="1" parent="1" source="HF6BJj-_HyRR_GPY9bdS-19">
          <mxGeometry relative="1" as="geometry">
            <mxPoint x="510" y="45" as="sourcePoint" />
            <mxPoint x="517.75" y="50" as="targetPoint" />
          </mxGeometry>
        </mxCell>
        <mxCell id="HF6BJj-_HyRR_GPY9bdS-39" value="" style="edgeStyle=none;rounded=1;html=1;labelBackgroundColor=none;startArrow=none;startFill=0;startSize=5;endArrow=classicThin;endFill=1;endSize=5;jettySize=auto;orthogonalLoop=1;strokeColor=#B3B3B3;strokeWidth=1;fontFamily=Verdana;fontSize=12;exitX=0;exitY=0;exitDx=0;exitDy=0;entryX=0.64;entryY=1.017;entryDx=0;entryDy=0;entryPerimeter=0;" edge="1" parent="1" source="HF6BJj-_HyRR_GPY9bdS-19" target="HF6BJj-_HyRR_GPY9bdS-33">
          <mxGeometry relative="1" as="geometry">
            <mxPoint x="394.88" y="110" as="sourcePoint" />
            <mxPoint x="435.13" y="40" as="targetPoint" />
          </mxGeometry>
        </mxCell>
        <mxCell id="HF6BJj-_HyRR_GPY9bdS-40" value="牌，不同的属性" style="rounded=1;whiteSpace=wrap;html=1;fillColor=#dae8fc;strokeColor=#6c8ebf;" vertex="1" parent="1">
          <mxGeometry x="660" y="-10" width="50" height="60" as="geometry" />
        </mxCell>
        <mxCell id="HF6BJj-_HyRR_GPY9bdS-41" value="" style="edgeStyle=none;rounded=1;html=1;labelBackgroundColor=none;startArrow=none;startFill=0;startSize=5;endArrow=classicThin;endFill=1;endSize=5;jettySize=auto;orthogonalLoop=1;strokeColor=#B3B3B3;strokeWidth=1;fontFamily=Verdana;fontSize=12;exitX=0.75;exitY=0;exitDx=0;exitDy=0;" edge="1" parent="1">
          <mxGeometry relative="1" as="geometry">
            <mxPoint x="630" y="120" as="sourcePoint" />
            <mxPoint x="670.25" y="50" as="targetPoint" />
          </mxGeometry>
        </mxCell>
        <mxCell id="HF6BJj-_HyRR_GPY9bdS-42" value="" style="edgeStyle=none;rounded=1;html=1;labelBackgroundColor=none;startArrow=none;startFill=0;startSize=5;endArrow=classicThin;endFill=1;endSize=5;jettySize=auto;orthogonalLoop=1;strokeColor=#B3B3B3;strokeWidth=1;fontFamily=Verdana;fontSize=12;exitX=0;exitY=0;exitDx=0;exitDy=0;entryX=0.64;entryY=1.017;entryDx=0;entryDy=0;entryPerimeter=0;" edge="1" parent="1">
          <mxGeometry relative="1" as="geometry">
            <mxPoint x="580" y="128.98" as="sourcePoint" />
            <mxPoint x="542" y="49.99999999999998" as="targetPoint" />
          </mxGeometry>
        </mxCell>
        <mxCell id="HF6BJj-_HyRR_GPY9bdS-43" value="" style="edgeStyle=none;rounded=1;html=1;labelBackgroundColor=none;startArrow=none;startFill=0;startSize=5;endArrow=classicThin;endFill=1;endSize=5;jettySize=auto;orthogonalLoop=1;strokeColor=#B3B3B3;strokeWidth=1;fontFamily=Verdana;fontSize=12;entryX=1;entryY=0;entryDx=0;entryDy=0;exitX=0;exitY=0.5;exitDx=0;exitDy=0;" edge="1" parent="1" source="HF6BJj-_HyRR_GPY9bdS-16">
          <mxGeometry relative="1" as="geometry">
            <mxPoint x="190" y="365" as="sourcePoint" />
            <mxPoint x="110" y="395" as="targetPoint" />
          </mxGeometry>
        </mxCell>
        <mxCell id="HF6BJj-_HyRR_GPY9bdS-54" style="edgeStyle=orthogonalEdgeStyle;rounded=0;orthogonalLoop=1;jettySize=auto;html=1;exitX=0;exitY=0.5;exitDx=0;exitDy=0;entryX=0.5;entryY=1;entryDx=0;entryDy=0;" edge="1" parent="1" source="HF6BJj-_HyRR_GPY9bdS-44" target="HF6BJj-_HyRR_GPY9bdS-52">
          <mxGeometry relative="1" as="geometry">
            <Array as="points">
              <mxPoint x="60" y="480" />
              <mxPoint x="-295" y="480" />
            </Array>
          </mxGeometry>
        </mxCell>
        <mxCell id="HF6BJj-_HyRR_GPY9bdS-44" value="牌，不同的属性" style="rounded=1;whiteSpace=wrap;html=1;fillColor=#dae8fc;strokeColor=#6c8ebf;" vertex="1" parent="1">
          <mxGeometry x="60" y="470" width="50" height="60" as="geometry" />
        </mxCell>
        <mxCell id="HF6BJj-_HyRR_GPY9bdS-45" value="" style="edgeStyle=none;rounded=1;html=1;labelBackgroundColor=none;startArrow=none;startFill=0;startSize=5;endArrow=classicThin;endFill=1;endSize=5;jettySize=auto;orthogonalLoop=1;strokeColor=#B3B3B3;strokeWidth=1;fontFamily=Verdana;fontSize=12;entryX=1;entryY=0;entryDx=0;entryDy=0;exitX=0;exitY=0.5;exitDx=0;exitDy=0;" edge="1" parent="1">
          <mxGeometry relative="1" as="geometry">
            <mxPoint x="190" y="450" as="sourcePoint" />
            <mxPoint x="110" y="480" as="targetPoint" />
          </mxGeometry>
        </mxCell>
        <mxCell id="HF6BJj-_HyRR_GPY9bdS-61" style="edgeStyle=orthogonalEdgeStyle;rounded=0;orthogonalLoop=1;jettySize=auto;html=1;exitX=0;exitY=0.5;exitDx=0;exitDy=0;entryX=1;entryY=0.5;entryDx=0;entryDy=0;" edge="1" parent="1" source="HF6BJj-_HyRR_GPY9bdS-50" target="HF6BJj-_HyRR_GPY9bdS-60">
          <mxGeometry relative="1" as="geometry" />
        </mxCell>
        <mxCell id="HF6BJj-_HyRR_GPY9bdS-50" value="牌，高级属性" style="rounded=1;whiteSpace=wrap;html=1;fillColor=#e1d5e7;strokeColor=#9673a6;" vertex="1" parent="1">
          <mxGeometry x="250" y="-140" width="50" height="60" as="geometry" />
        </mxCell>
        <mxCell id="HF6BJj-_HyRR_GPY9bdS-62" style="edgeStyle=orthogonalEdgeStyle;rounded=0;orthogonalLoop=1;jettySize=auto;html=1;exitX=0;exitY=0.5;exitDx=0;exitDy=0;entryX=0.5;entryY=1;entryDx=0;entryDy=0;" edge="1" parent="1" source="HF6BJj-_HyRR_GPY9bdS-52" target="HF6BJj-_HyRR_GPY9bdS-60">
          <mxGeometry relative="1" as="geometry">
            <Array as="points">
              <mxPoint x="-340" y="350" />
              <mxPoint x="-340" y="-80" />
              <mxPoint x="-255" y="-80" />
            </Array>
          </mxGeometry>
        </mxCell>
        <mxCell id="HF6BJj-_HyRR_GPY9bdS-52" value="牌，高级属性" style="rounded=1;whiteSpace=wrap;html=1;fillColor=#e1d5e7;strokeColor=#9673a6;" vertex="1" parent="1">
          <mxGeometry x="-320" y="320" width="50" height="60" as="geometry" />
        </mxCell>
        <mxCell id="HF6BJj-_HyRR_GPY9bdS-60" value="牌，高级属性" style="rounded=1;whiteSpace=wrap;html=1;fillColor=#fff2cc;strokeColor=#d6b656;" vertex="1" parent="1">
          <mxGeometry x="-300" y="-140" width="50" height="60" as="geometry" />
        </mxCell>
        <mxCell id="HF6BJj-_HyRR_GPY9bdS-63" value="" style="edgeStyle=none;rounded=1;html=1;labelBackgroundColor=none;startArrow=none;startFill=0;startSize=5;endArrow=classicThin;endFill=1;endSize=5;jettySize=auto;orthogonalLoop=1;strokeColor=#B3B3B3;strokeWidth=1;fontFamily=Verdana;fontSize=12;exitX=0;exitY=0.5;exitDx=0;exitDy=0;" edge="1" parent="1">
          <mxGeometry relative="1" as="geometry">
            <mxPoint x="60" y="375" as="sourcePoint" />
            <mxPoint x="10" y="405" as="targetPoint" />
          </mxGeometry>
        </mxCell>
        <mxCell id="HF6BJj-_HyRR_GPY9bdS-71" style="edgeStyle=orthogonalEdgeStyle;rounded=0;orthogonalLoop=1;jettySize=auto;html=1;exitX=0;exitY=0.5;exitDx=0;exitDy=0;entryX=0.5;entryY=1;entryDx=0;entryDy=0;" edge="1" parent="1" source="HF6BJj-_HyRR_GPY9bdS-64" target="HF6BJj-_HyRR_GPY9bdS-69">
          <mxGeometry relative="1" as="geometry" />
        </mxCell>
        <mxCell id="HF6BJj-_HyRR_GPY9bdS-64" value="牌，不同的属性" style="rounded=1;whiteSpace=wrap;html=1;fillColor=#e1d5e7;strokeColor=#9673a6;" vertex="1" parent="1">
          <mxGeometry x="-40" y="390" width="50" height="60" as="geometry" />
        </mxCell>
        <mxCell id="HF6BJj-_HyRR_GPY9bdS-65" value="" style="edgeStyle=none;rounded=1;html=1;labelBackgroundColor=none;startArrow=none;startFill=0;startSize=5;endArrow=classicThin;endFill=1;endSize=5;jettySize=auto;orthogonalLoop=1;strokeColor=#B3B3B3;strokeWidth=1;fontFamily=Verdana;fontSize=12;exitX=0;exitY=0;exitDx=0;exitDy=0;" edge="1" parent="1" source="HF6BJj-_HyRR_GPY9bdS-44">
          <mxGeometry relative="1" as="geometry">
            <mxPoint x="60" y="415" as="sourcePoint" />
            <mxPoint x="10" y="445" as="targetPoint" />
          </mxGeometry>
        </mxCell>
        <mxCell id="HF6BJj-_HyRR_GPY9bdS-66" value="" style="edgeStyle=none;rounded=1;html=1;labelBackgroundColor=none;startArrow=none;startFill=0;startSize=5;endArrow=classicThin;endFill=1;endSize=5;jettySize=auto;orthogonalLoop=1;strokeColor=#B3B3B3;strokeWidth=1;fontFamily=Verdana;fontSize=12;exitX=0;exitY=1;exitDx=0;exitDy=0;" edge="1" parent="1" source="HF6BJj-_HyRR_GPY9bdS-27">
          <mxGeometry relative="1" as="geometry">
            <mxPoint x="60" y="235" as="sourcePoint" />
            <mxPoint x="10" y="265" as="targetPoint" />
          </mxGeometry>
        </mxCell>
        <mxCell id="HF6BJj-_HyRR_GPY9bdS-70" style="edgeStyle=orthogonalEdgeStyle;rounded=0;orthogonalLoop=1;jettySize=auto;html=1;exitX=0;exitY=0.5;exitDx=0;exitDy=0;entryX=0.5;entryY=0;entryDx=0;entryDy=0;" edge="1" parent="1" source="HF6BJj-_HyRR_GPY9bdS-67" target="HF6BJj-_HyRR_GPY9bdS-69">
          <mxGeometry relative="1" as="geometry" />
        </mxCell>
        <mxCell id="HF6BJj-_HyRR_GPY9bdS-67" value="牌，不同的属性" style="rounded=1;whiteSpace=wrap;html=1;fillColor=#e1d5e7;strokeColor=#9673a6;" vertex="1" parent="1">
          <mxGeometry x="-40" y="250" width="50" height="60" as="geometry" />
        </mxCell>
        <mxCell id="HF6BJj-_HyRR_GPY9bdS-68" value="" style="edgeStyle=none;rounded=1;html=1;labelBackgroundColor=none;startArrow=none;startFill=0;startSize=5;endArrow=classicThin;endFill=1;endSize=5;jettySize=auto;orthogonalLoop=1;strokeColor=#B3B3B3;strokeWidth=1;fontFamily=Verdana;fontSize=12;exitX=0;exitY=0;exitDx=0;exitDy=0;" edge="1" parent="1">
          <mxGeometry relative="1" as="geometry">
            <mxPoint x="60" y="330" as="sourcePoint" />
            <mxPoint x="10" y="305" as="targetPoint" />
          </mxGeometry>
        </mxCell>
        <mxCell id="HF6BJj-_HyRR_GPY9bdS-69" value="牌，高级属性" style="rounded=1;whiteSpace=wrap;html=1;fillColor=#fff2cc;strokeColor=#d6b656;" vertex="1" parent="1">
          <mxGeometry x="-140" y="320" width="50" height="60" as="geometry" />
        </mxCell>
      </root>
    </mxGraphModel>
  </diagram>
</mxfile>
